<svg width="122" height="36" viewBox="0 0 122 36" fill="none" xmlns="http://www.w3.org/2000/svg">
<path d="M36.75 19.4545H50.5C51.9587 19.4545 53.3576 20.0101 54.3891 20.9989C55.4205 21.9877 56 23.3289 56 24.7273C56 26.1257 55.4205 27.4668 54.3891 28.4557C53.3576 29.4445 51.9587 30 50.5 30H9.25L1 14.1818H9.25L14.75 19.4545H23L17.5 1H25.75L36.75 19.4545Z" fill="#092243" stroke="#252525" stroke-width="2" stroke-linecap="round" stroke-linejoin="round"/>
<path d="M67.6367 30.12L63.0367 19.38C62.9034 19.0467 62.7767 18.7 62.6567 18.34C62.5367 17.98 62.4767 17.6933 62.4767 17.48C62.2634 17.4933 62.0634 17.5067 61.8767 17.52C61.7034 17.52 61.5434 17.5267 61.3967 17.54V16H67.2967V17.32C66.8034 17.3067 66.4234 17.4133 66.1567 17.64C65.9034 17.8667 65.8967 18.2733 66.1367 18.86C66.4434 19.6067 66.7501 20.36 67.0567 21.12C67.3634 21.88 67.6701 22.6333 67.9767 23.38C68.2034 23.94 68.3967 24.4333 68.5567 24.86C68.7167 25.2733 68.9034 25.7333 69.1167 26.24H69.1367C69.2834 25.84 69.4367 25.3933 69.5967 24.9C69.7701 24.4067 69.9367 23.9333 70.0967 23.48C70.2701 23.0133 70.4367 22.5467 70.5967 22.08C70.7701 21.6133 70.9434 21.1533 71.1167 20.7C71.2901 20.2333 71.4567 19.7667 71.6167 19.3C71.6834 19.0733 71.7901 18.7667 71.9367 18.38C72.0967 17.9933 72.2634 17.6933 72.4367 17.48C72.2234 17.4933 71.9501 17.5067 71.6167 17.52C71.2834 17.52 71.0434 17.5267 70.8967 17.54V16H75.3967V17.32C74.9434 17.3333 74.5501 17.5 74.2167 17.82C73.8834 18.14 73.5701 18.6867 73.2767 19.46C73.0501 20.0467 72.8234 20.64 72.5967 21.24C72.3834 21.8267 72.1634 22.42 71.9367 23.02C71.7234 23.6067 71.5034 24.2 71.2767 24.8C71.0501 25.3867 70.8234 25.98 70.5967 26.58C70.3834 27.1667 70.1634 27.7533 69.9367 28.34C69.7234 28.9267 69.5034 29.52 69.2767 30.12H67.6367ZM79.6194 30.32C78.8194 30.32 78.1727 30.1667 77.6794 29.86C77.1994 29.5533 76.846 29.0733 76.6194 28.42C76.406 27.7667 76.2994 26.9267 76.2994 25.9V23.6C76.2994 23.36 76.306 23.0867 76.3194 22.78C76.3327 22.46 76.346 22.1533 76.3594 21.86C76.146 21.8733 75.8927 21.8867 75.5994 21.9C75.3194 21.9 75.106 21.9067 74.9594 21.92V20.4H75.1594C75.986 20.4 76.6394 20.3333 77.1194 20.2C77.5994 20.0667 77.906 19.9333 78.0394 19.8H79.1394V25.92C79.1394 26.7867 79.2527 27.4333 79.4794 27.86C79.706 28.2733 80.066 28.48 80.5594 28.48C80.906 28.48 81.2527 28.3867 81.5994 28.2C81.9594 28 82.2527 27.7733 82.4794 27.52V23.6C82.4794 23.36 82.486 23.0867 82.4994 22.78C82.5127 22.46 82.5327 22.1533 82.5594 21.86C82.346 21.8733 82.0927 21.8867 81.7994 21.9C81.5194 21.9 81.306 21.9067 81.1594 21.92V20.4H81.6394C82.266 20.4 82.8194 20.3333 83.2994 20.2C83.7794 20.0533 84.086 19.92 84.2194 19.8H85.3194V26.78C85.3194 26.9667 85.3127 27.2333 85.2994 27.58C85.286 27.9133 85.266 28.2333 85.2394 28.54C85.4527 28.5133 85.686 28.5 85.9394 28.5C86.206 28.4867 86.406 28.48 86.5394 28.48V30H82.7394C82.726 29.8267 82.706 29.6533 82.6794 29.48C82.666 29.3067 82.646 29.1333 82.6194 28.96C82.206 29.3067 81.7594 29.62 81.2794 29.9C80.8127 30.18 80.2594 30.32 79.6194 30.32ZM92.3427 35.42C91.196 35.42 90.2893 35.2933 89.6227 35.04C88.956 34.8 88.4827 34.48 88.2027 34.08C87.9227 33.68 87.7827 33.2533 87.7827 32.8C87.7827 32.52 87.8427 32.24 87.9627 31.96C88.0827 31.68 88.276 31.4067 88.5427 31.14C88.8227 30.8867 89.2027 30.6733 89.6827 30.5C89.136 30.3533 88.7493 30.12 88.5227 29.8C88.3093 29.4667 88.2027 29.1133 88.2027 28.74C88.2027 28.3933 88.3427 28.0067 88.6227 27.58C88.9027 27.14 89.4093 26.8067 90.1427 26.58C89.5827 26.3533 89.1227 26 88.7627 25.52C88.4027 25.04 88.2093 24.46 88.1827 23.78C88.156 22.98 88.356 22.2733 88.7827 21.66C89.2093 21.0333 89.7693 20.5467 90.4627 20.2C91.156 19.8533 91.8827 19.68 92.6427 19.68C92.9893 19.68 93.3893 19.7267 93.8427 19.82C94.296 19.9133 94.6893 20.0733 95.0227 20.3C95.1693 19.8867 95.356 19.5 95.5827 19.14C95.8227 18.7667 96.1093 18.4667 96.4427 18.24C96.776 18 97.1493 17.88 97.5627 17.88C98.016 17.88 98.356 18 98.5827 18.24C98.8227 18.4667 98.9427 18.7733 98.9427 19.16C98.9427 19.32 98.9027 19.5 98.8227 19.7C98.756 19.8867 98.6293 20.0467 98.4427 20.18C98.2693 20.3133 98.0227 20.38 97.7027 20.38C97.5027 20.38 97.3027 20.3067 97.1027 20.16C96.9027 20 96.7827 19.8133 96.7427 19.6C96.5693 19.6533 96.396 19.8267 96.2227 20.12C96.0493 20.4133 95.9493 20.6733 95.9227 20.9C96.3093 21.2333 96.6027 21.62 96.8027 22.06C97.0027 22.5 97.1027 22.9733 97.1027 23.48C97.1027 24.2533 96.8827 24.94 96.4427 25.54C96.016 26.1267 95.456 26.5933 94.7627 26.94C94.0827 27.2733 93.3493 27.44 92.5627 27.44C92.3893 27.44 92.196 27.4333 91.9827 27.42C91.7693 27.3933 91.5627 27.38 91.3627 27.38C91.0693 27.38 90.8227 27.4333 90.6227 27.54C90.4227 27.6467 90.3227 27.7933 90.3227 27.98C90.3227 28.2333 90.516 28.4067 90.9027 28.5C91.2893 28.5933 91.9493 28.6667 92.8827 28.72C93.9093 28.7733 94.8027 28.9067 95.5627 29.12C96.336 29.32 96.936 29.64 97.3627 30.08C97.7893 30.52 98.0027 31.1267 98.0027 31.9C98.0027 32.4733 97.836 32.9733 97.5027 33.4C97.1693 33.84 96.7227 34.2067 96.1627 34.5C95.616 34.8067 95.0093 35.0333 94.3427 35.18C93.676 35.34 93.0093 35.42 92.3427 35.42ZM92.9227 34.04C93.8693 34.04 94.5827 33.8667 95.0627 33.52C95.556 33.1733 95.8027 32.8133 95.8027 32.44C95.8027 32.16 95.696 31.9267 95.4827 31.74C95.2693 31.5667 94.9493 31.4267 94.5227 31.32C94.1093 31.2133 93.576 31.1467 92.9227 31.12C92.6293 31.0933 92.2893 31.0733 91.9027 31.06C91.516 31.0467 91.176 31.0133 90.8827 30.96C90.6827 31.12 90.5293 31.32 90.4227 31.56C90.316 31.8 90.256 32.0333 90.2427 32.26C90.216 32.7933 90.4427 33.22 90.9227 33.54C91.416 33.8733 92.0827 34.04 92.9227 34.04ZM92.6427 26.1C93.0027 26.1 93.3027 25.9867 93.5427 25.76C93.796 25.5333 93.9827 25.2467 94.1027 24.9C94.236 24.5533 94.3027 24.2 94.3027 23.84C94.3027 23.3733 94.2427 22.9267 94.1227 22.5C94.0027 22.06 93.816 21.7067 93.5627 21.44C93.3227 21.16 93.0093 21.02 92.6227 21.02C92.0893 21.02 91.676 21.26 91.3827 21.74C91.0893 22.22 90.9427 22.7667 90.9427 23.38C90.9427 23.8467 91.0093 24.2933 91.1427 24.72C91.276 25.1333 91.4693 25.4667 91.7227 25.72C91.976 25.9733 92.2827 26.1 92.6427 26.1ZM105.218 28.7C105.592 28.7 105.858 28.6267 106.018 28.48C106.192 28.3333 106.298 28.1267 106.338 27.86C106.392 27.58 106.418 27.2667 106.418 26.92L106.398 24.08C106.398 23.2133 106.265 22.5733 105.998 22.16C105.745 21.7333 105.338 21.52 104.778 21.52C104.445 21.52 104.112 21.5933 103.778 21.74C103.458 21.8867 103.185 22.06 102.958 22.26V26.78C102.958 26.9667 102.952 27.2333 102.938 27.58C102.925 27.9133 102.905 28.2333 102.878 28.54C103.105 28.5133 103.345 28.5 103.598 28.5C103.852 28.4867 104.045 28.48 104.178 28.48V30H98.9383V28.7C99.3116 28.7 99.5783 28.6267 99.7383 28.48C99.9116 28.3333 100.018 28.1267 100.058 27.86C100.098 27.58 100.118 27.2667 100.118 26.92V18.7C100.118 18.46 100.125 18.1867 100.138 17.88C100.152 17.56 100.172 17.2533 100.198 16.96C99.9849 16.9733 99.7316 16.9867 99.4383 17C99.1583 17 98.9449 17.0067 98.7983 17.02V15.5C99.4249 15.5 99.9449 15.4667 100.358 15.4C100.785 15.3333 101.118 15.2533 101.358 15.16C101.612 15.0667 101.785 14.98 101.878 14.9H102.958V20.8C103.225 20.5867 103.532 20.4 103.878 20.24C104.225 20.0667 104.578 19.9333 104.938 19.84C105.298 19.7333 105.612 19.68 105.878 19.68C107.105 19.68 107.972 20.0333 108.478 20.74C108.985 21.4333 109.245 22.5533 109.258 24.1V26.78C109.258 26.9667 109.252 27.2333 109.238 27.58C109.225 27.9133 109.205 28.2333 109.178 28.54C109.392 28.5133 109.625 28.5 109.878 28.5C110.132 28.4867 110.332 28.48 110.478 28.48V30H105.218V28.7ZM113.708 35.42C113.201 35.42 112.768 35.2667 112.408 34.96C112.061 34.6667 111.888 34.2733 111.888 33.78C111.888 33.42 112.001 33.1 112.228 32.82C112.468 32.5533 112.774 32.4133 113.148 32.4C113.441 32.3867 113.688 32.48 113.888 32.68C114.101 32.8933 114.208 33.18 114.208 33.54C114.208 33.58 114.208 33.62 114.208 33.66C114.208 33.7 114.201 33.7467 114.188 33.8C114.214 33.8 114.248 33.7933 114.288 33.78C114.408 33.74 114.534 33.6267 114.668 33.44C114.814 33.2667 114.954 33.0333 115.088 32.74C115.234 32.4333 115.374 32.0867 115.508 31.7C115.654 31.3267 115.781 30.9333 115.888 30.52L112.728 24.18C112.354 23.4333 112.108 22.8733 111.988 22.5C111.881 22.1133 111.808 21.7733 111.768 21.48L110.848 21.52V20H115.828V21.28C115.334 21.3333 115.061 21.52 115.008 21.84C114.968 22.16 115.028 22.4933 115.188 22.84L117.148 27.32C117.281 26.9733 117.454 26.44 117.668 25.72C117.881 24.9867 118.134 24.1933 118.428 23.34C118.481 23.1667 118.548 22.9667 118.628 22.74C118.721 22.5 118.821 22.2667 118.928 22.04C119.034 21.8 119.148 21.6067 119.268 21.46L118.128 21.52V20H121.688V21.28C121.274 21.3733 120.928 21.6267 120.648 22.04C120.381 22.4533 120.141 22.96 119.928 23.56L117.428 30.7C117.054 31.78 116.701 32.6667 116.368 33.36C116.034 34.0667 115.661 34.5867 115.248 34.92C114.834 35.2533 114.321 35.42 113.708 35.42Z" fill="#092243"/>
</svg>
