<svg width="18" height="18" viewBox="0 0 18 18" fill="none" xmlns="http://www.w3.org/2000/svg">
<path d="M11.685 9C11.685 10.485 10.485 11.685 9 11.685C7.515 11.685 6.315 10.485 6.315 9C6.315 7.515 7.515 6.315 9 6.315C10.485 6.315 11.685 7.515 11.685 9Z" stroke="#575757" stroke-width="1.3" stroke-linecap="round" stroke-linejoin="round"/>
<path d="M9 15.2025C11.6475 15.2025 14.115 13.6425 15.8325 10.9425C16.5075 9.885 16.5075 8.1075 15.8325 7.05C14.115 4.35 11.6475 2.79 9 2.79C6.3525 2.79 3.885 4.35 2.1675 7.05C1.4925 8.1075 1.4925 9.885 2.1675 10.9425C3.885 13.6425 6.3525 15.2025 9 15.2025Z" stroke="#575757" stroke-width="1.3" stroke-linecap="round" stroke-linejoin="round"/>
</svg>
