<svg width="18" height="18" viewBox="0 0 18 18" fill="none" xmlns="http://www.w3.org/2000/svg">
<path d="M6 8.55C6 9.1275 6.45 9.6 6.9975 9.6H8.1225C8.6025 9.6 8.9925 9.1875 8.9925 8.685C8.9925 8.1375 8.7525 7.9425 8.4 7.815L6.6 7.185C6.24 7.0575 6 6.8625 6 6.315C6 5.8125 6.39 5.4 6.87 5.4H7.995C8.55 5.4075 9 5.8725 9 6.45" stroke="#575757" stroke-width="1.3" stroke-linecap="round" stroke-linejoin="round"/>
<path d="M7.5 9.6375V10.1925" stroke="#575757" stroke-width="1.3" stroke-linecap="round" stroke-linejoin="round"/>
<path d="M7.5 4.8075V5.3925" stroke="#575757" stroke-width="1.3" stroke-linecap="round" stroke-linejoin="round"/>
<path d="M7.4925 13.485C10.8021 13.485 13.485 10.8021 13.485 7.4925C13.485 4.18293 10.8021 1.5 7.4925 1.5C4.18293 1.5 1.5 4.18293 1.5 7.4925C1.5 10.8021 4.18293 13.485 7.4925 13.485Z" stroke="#575757" stroke-width="1.3" stroke-linecap="round" stroke-linejoin="round"/>
<path d="M9.73499 14.91C10.41 15.8625 11.5125 16.485 12.7725 16.485C14.82 16.485 16.485 14.82 16.485 12.7725C16.485 11.5275 15.87 10.425 14.9325 9.75" stroke="#575757" stroke-width="1.3" stroke-linecap="round" stroke-linejoin="round"/>
</svg>
