<svg width="122" height="36" viewBox="0 0 253 85" fill="none" xmlns="http://www.w3.org/2000/svg">
<mask id="mask0_693_109688" style="mask-type:luminance" maskUnits="userSpaceOnUse" x="0" y="0" width="89" height="85">
<path d="M0.932129 0.098999H88.9321V84.099H0.932129V0.098999Z" fill="white"/>
</mask>
<g mask="url(#mask0_693_109688)">
<path d="M88.8851 3.23962C88.8851 3.48441 88.8591 3.724 88.807 3.95317L88.6351 4.21358C88.6351 4.21879 88.6351 4.21879 88.6351 4.224L88.2705 4.7865L87.6559 5.73962L73.4424 27.7709L37.1091 84.099L33.6091 78.6407L29.4893 72.2292L58.6195 27.7709H66.4216L82.7601 2.43754L83.8226 0.791707C84.3591 0.359415 85.0361 0.098999 85.7705 0.098999C87.4945 0.098999 88.8851 1.50525 88.8851 3.23962ZM62.2705 11.2865L62.9059 10.3073C63.0466 9.95837 63.1195 9.57296 63.1195 9.17192C63.1195 7.5365 61.8538 6.20317 60.2913 6.20317C59.5361 6.20317 58.8538 6.51046 58.3486 7.01567H58.3434L57.6507 8.08858C57.6507 8.08858 57.6507 8.08858 57.6507 8.09379L44.958 27.7709H37.3747L18.7809 55.5209L22.9059 61.9584L26.2393 67.1511L51.6403 27.7709L62.2705 11.2865ZM37.9059 16.4063C37.9268 16.375 37.9424 16.3438 37.9632 16.3125C38.2549 15.8542 38.4268 15.3021 38.4268 14.7084C38.4268 13.099 37.182 11.7969 35.6507 11.7969C34.7913 11.7969 34.0205 12.2084 33.5101 12.8542L33.2132 13.3177C33.2132 13.323 33.2132 13.323 33.2132 13.323L23.8903 27.7709H0.989258L12.4059 45.5782L15.7393 50.7761L30.5726 27.7709L37.9059 16.4063Z" fill="#6941C6"/>
</g>
<path d="M96.5464 72.2577L82.6714 40.6119H87.7756L98.0256 65.9035L107.276 40.6119H109.609L97.2964 72.2577H96.5464Z" fill="#021622"/>
<path d="M142.973 40.6119V59.5702C142.973 62.4608 142.661 64.6327 142.036 66.091C141.755 66.7473 141.312 67.4869 140.702 68.3202C140.088 69.1431 139.38 69.7994 138.577 70.2994C136.52 71.4817 133.958 72.0702 130.89 72.0702C123.166 72.0702 119.307 68.1067 119.307 60.1744V40.6119H124.057V60.5494C124.057 61.4556 124.067 62.1848 124.098 62.7369C124.14 63.2942 124.307 64.0858 124.598 65.1119C124.9 66.1431 125.307 66.966 125.807 67.591C126.317 68.216 127.124 68.7785 128.223 69.2785C129.333 69.7681 130.65 70.0077 132.182 70.0077C137.999 70.0077 140.911 66.8983 140.911 60.6744V40.6119H142.973Z" fill="#021622"/>
<path d="M175.95 58.216H180.471V70.4869C177.804 71.539 174.585 72.0702 170.825 72.0702C166.241 72.0702 162.304 70.8567 159.012 68.4244C157.398 67.216 156.106 65.6275 155.137 63.6535C154.179 61.6692 153.7 59.4817 153.7 57.091C153.7 54.69 154.064 52.539 154.804 50.6327C155.554 48.716 156.523 47.1223 157.721 45.841C158.929 44.565 160.325 43.4765 161.908 42.5702C164.866 40.8931 168.116 40.0494 171.658 40.0494C173.033 40.0494 174.512 40.2108 176.096 40.5285C177.679 40.8358 178.892 41.164 179.741 41.5077L179.262 44.6327C175.064 42.8567 171.58 41.966 168.804 41.966C165.663 42.7733 163.184 44.44 161.366 46.966C159.543 49.4817 158.637 52.5598 158.637 56.1952C158.637 60.7369 159.83 64.2473 162.221 66.716C164.622 69.19 167.783 70.4244 171.7 70.4244C173.252 70.4244 174.668 70.2733 175.95 69.966V58.216Z" fill="#021622"/>
<path d="M198.395 56.1952V71.5077H193.874V40.6119H198.395V54.4244H212.541V40.6119H217.062V71.5077H212.541V56.1952H198.395Z" fill="#021622"/>
<path d="M242.992 71.5077H238.471V60.0285L227.93 40.6119H233.013L241.638 58.341L249.721 40.6119H252.055L242.992 59.7994V71.5077Z" fill="#021622"/>
</svg>
