<svg width="150" height="36" viewBox="0 0 150 36" fill="none" xmlns="http://www.w3.org/2000/svg">
<g clip-path="url(#clip0_11_927)">
<path d="M45.5357 24.7065H56.0301V21.5456H49.2657V9.63922H45.5357V24.7065Z" fill="#454CDE"/>
<path d="M62.2477 22.5992C60.7515 22.5992 59.9718 21.2927 59.9718 19.3329C59.9718 17.3731 60.7515 16.0455 62.2477 16.0455C63.7439 16.0455 64.5446 17.3731 64.5446 19.3329C64.5446 21.2927 63.7439 22.5992 62.2477 22.5992ZM62.2687 25.0437C65.7458 25.0437 68.0217 22.5781 68.0217 19.3329C68.0217 16.0876 65.7458 13.622 62.2687 13.622C58.8127 13.622 56.4947 16.0876 56.4947 19.3329C56.4947 22.5781 58.8127 25.0437 62.2687 25.0437Z" fill="#454CDE"/>
<path d="M74.0403 28.4365C75.6419 28.4365 77.0538 28.0782 78.0021 27.2353C78.8661 26.4556 79.435 25.2755 79.435 23.6529V13.9171H76.1476V15.0761H76.1055C75.4733 14.17 74.5039 13.601 73.071 13.601C70.3947 13.601 68.5402 15.8347 68.5402 18.9957C68.5402 22.3042 70.7951 24.1165 73.2185 24.1165C74.525 24.1165 75.3469 23.5897 75.9791 22.8732H76.0633V23.9479C76.0633 25.2544 75.4522 26.0131 73.9982 26.0131C72.8602 26.0131 72.2912 25.5284 72.1016 24.9594H68.772C69.1092 27.2143 71.069 28.4365 74.0403 28.4365ZM74.0192 21.5666C72.7338 21.5666 71.8909 20.513 71.8909 18.8903C71.8909 17.2466 72.7338 16.193 74.0192 16.193C75.4522 16.193 76.2109 17.4152 76.2109 18.8693C76.2109 20.3865 75.5154 21.5666 74.0192 21.5666Z" fill="#454CDE"/>
<path d="M86.1945 22.5992C84.6983 22.5992 83.9186 21.2927 83.9186 19.3329C83.9186 17.3731 84.6983 16.0455 86.1945 16.0455C87.6907 16.0455 88.4915 17.3731 88.4915 19.3329C88.4915 21.2927 87.6907 22.5992 86.1945 22.5992ZM86.2156 25.0437C89.6927 25.0437 91.9686 22.5781 91.9686 19.3329C91.9686 16.0876 89.6927 13.622 86.2156 13.622C82.7596 13.622 80.4415 16.0876 80.4415 19.3329C80.4415 22.5781 82.7596 25.0437 86.2156 25.0437Z" fill="#454CDE"/>
<path d="M92.9713 24.7065H96.4062V13.9171H92.9713V24.7065ZM92.9713 12.4209H96.4062V9.63922H92.9713V12.4209Z" fill="#454CDE"/>
<path d="M97.8972 28.2679H101.332V23.5897H101.374C102.049 24.4958 103.039 25.0437 104.43 25.0437C107.254 25.0437 109.129 22.81 109.129 19.3118C109.129 16.0665 107.38 13.601 104.514 13.601C103.039 13.601 101.985 14.2543 101.248 15.2236H101.185V13.9171H97.8972V28.2679ZM103.545 22.3885C102.07 22.3885 101.227 21.1873 101.227 19.4383C101.227 17.6892 101.985 16.3616 103.482 16.3616C104.957 16.3616 105.652 17.5838 105.652 19.4383C105.652 21.2716 104.851 22.3885 103.545 22.3885Z" fill="#454CDE"/>
<path d="M114.721 25.0437C117.545 25.0437 119.632 23.8215 119.632 21.4613C119.632 18.7007 117.398 18.216 115.501 17.8999C114.131 17.647 112.909 17.5417 112.909 16.783C112.909 16.1087 113.562 15.7926 114.405 15.7926C115.354 15.7926 116.007 16.0876 116.133 17.057H119.294C119.126 14.9286 117.482 13.601 114.426 13.601C111.877 13.601 109.769 14.7811 109.769 17.057C109.769 19.5858 111.771 20.0915 113.647 20.4076C115.08 20.6605 116.386 20.7659 116.386 21.7352C116.386 22.4306 115.733 22.81 114.7 22.81C113.562 22.81 112.846 22.2831 112.72 21.2084H109.474C109.58 23.5897 111.56 25.0437 114.721 25.0437Z" fill="#454CDE"/>
<path d="M124.297 25.0226C125.794 25.0226 126.742 24.4326 127.522 23.3789H127.585V24.7065H130.872V13.9171H127.437V19.944C127.437 21.2295 126.721 22.1145 125.541 22.1145C124.445 22.1145 123.918 21.4613 123.918 20.2812V13.9171H120.504V20.9977C120.504 23.4 121.811 25.0226 124.297 25.0226Z" fill="#454CDE"/>
<path d="M132.366 24.7065H135.801V18.6585C135.801 17.3731 136.433 16.4669 137.508 16.4669C138.54 16.4669 139.025 17.1413 139.025 18.3003V24.7065H142.46V18.6585C142.46 17.3731 143.071 16.4669 144.167 16.4669C145.199 16.4669 145.684 17.1413 145.684 18.3003V24.7065H149.119V17.6892C149.119 15.2658 147.897 13.601 145.452 13.601C144.061 13.601 142.902 14.191 142.059 15.4976H142.017C141.469 14.3385 140.395 13.601 138.983 13.601C137.423 13.601 136.391 14.3385 135.716 15.4554H135.653V13.9171H132.366V24.7065Z" fill="#454CDE"/>
<path fill-rule="evenodd" clip-rule="evenodd" d="M18.1616 35.2431C27.8603 35.2431 35.7226 27.3808 35.7226 17.6821C35.7226 7.98351 27.8603 0.121185 18.1616 0.121185C8.46295 0.121185 0.600647 7.98351 0.600647 17.6821C0.600647 27.3808 8.46295 35.2431 18.1616 35.2431ZM23.64 8.30182C23.9067 7.35459 22.9875 6.79447 22.148 7.39257L10.4287 15.7413C9.5183 16.3899 9.66151 17.6821 10.6439 17.6821H13.7299V17.6583H19.7443L14.8437 19.3874L12.6832 27.0625C12.4166 28.0097 13.3357 28.5699 14.1753 27.9717L25.8945 19.6231C26.805 18.9744 26.6617 17.6821 25.6794 17.6821H20.9996L23.64 8.30182Z" fill="#454CDE"/>
</g>
<defs>
<clipPath id="clip0_11_927">
<rect width="149.268" height="36" fill="white"/>
</clipPath>
</defs>
</svg>
