<svg width="24" height="24" viewBox="0 0 24 24" fill="none" xmlns="http://www.w3.org/2000/svg">
<g clip-path="url(#clip0_68_69631)">
<path d="M8 0.5V3.5" stroke="#4F4F4F" stroke-width="1.3" stroke-miterlimit="10" stroke-linecap="round" stroke-linejoin="round"/>
<path d="M16 0.5V3.5" stroke="#4F4F4F" stroke-width="1.3" stroke-miterlimit="10" stroke-linecap="round" stroke-linejoin="round"/>
<path d="M3.5 7.58997H20.5" stroke="#4F4F4F" stroke-width="1.3" stroke-miterlimit="10" stroke-linecap="round" stroke-linejoin="round"/>
<path d="M21 7V15.5C21 18.5 19.5 20.5 16 20.5H8C4.5 20.5 3 18.5 3 15.5V7C3 4 4.5 2 8 2H16C19.5 2 21 4 21 7Z" stroke="#4F4F4F" stroke-width="1.3" stroke-miterlimit="10" stroke-linecap="round" stroke-linejoin="round"/>
<path d="M15.6947 12.2H15.7037" stroke="#4F4F4F" stroke-width="1.3" stroke-linecap="round" stroke-linejoin="round"/>
<path d="M15.6947 15.2H15.7037" stroke="#4F4F4F" stroke-width="1.3" stroke-linecap="round" stroke-linejoin="round"/>
<path d="M11.9955 12.2H12.0045" stroke="#4F4F4F" stroke-width="1.3" stroke-linecap="round" stroke-linejoin="round"/>
<path d="M11.9955 15.2H12.0045" stroke="#4F4F4F" stroke-width="1.3" stroke-linecap="round" stroke-linejoin="round"/>
<path d="M8.29431 12.2H8.30329" stroke="#4F4F4F" stroke-width="1.3" stroke-linecap="round" stroke-linejoin="round"/>
<path d="M8.29431 15.2H8.30329" stroke="#4F4F4F" stroke-width="1.3" stroke-linecap="round" stroke-linejoin="round"/>
</g>
<defs>
<clipPath id="clip0_68_69631">
<rect width="24" height="24" fill="white"/>
</clipPath>
</defs>
</svg>
