<svg width="254" height="24" viewBox="0 0 254 24" fill="none" xmlns="http://www.w3.org/2000/svg">
<rect x="0.5" y="0.5" width="33" height="23" rx="3.5" fill="white"/>
<path fill-rule="evenodd" clip-rule="evenodd" d="M10.7503 15.8582H8.69056L7.146 9.79235C7.07269 9.51332 6.91703 9.26664 6.68806 9.15038C6.11664 8.85821 5.48696 8.62568 4.80005 8.50841V8.27487H8.11813C8.57607 8.27487 8.91953 8.62568 8.97677 9.0331L9.77817 13.4086L11.8369 8.27487H13.8394L10.7503 15.8582ZM14.9843 15.8582H13.039L14.6408 8.27487H16.5861L14.9843 15.8582ZM19.1028 10.3757C19.16 9.96725 19.5035 9.73372 19.9042 9.73372C20.5338 9.67508 21.2197 9.79235 21.7922 10.0835L22.1356 8.45079C21.5632 8.21725 20.9335 8.09998 20.3621 8.09998C18.4741 8.09998 17.1003 9.15038 17.1003 10.6082C17.1003 11.7173 18.0734 12.2996 18.7603 12.6504C19.5035 13.0002 19.7897 13.2337 19.7324 13.5835C19.7324 14.1082 19.16 14.3418 18.5886 14.3418C17.9017 14.3418 17.2147 14.1669 16.5861 13.8747L16.2426 15.5084C16.9295 15.7996 17.6727 15.9169 18.3596 15.9169C20.4766 15.9745 21.7922 14.9251 21.7922 13.35C21.7922 11.3664 19.1028 11.2502 19.1028 10.3757ZM28.6 15.8582L27.0555 8.27487H25.3965C25.053 8.27487 24.7095 8.50841 24.5951 8.85821L21.7349 15.8582H23.7374L24.1371 14.7502H26.5976L26.8265 15.8582H28.6ZM25.6827 10.3171L26.2541 13.1751H24.6523L25.6827 10.3171Z" fill="#575757"/>
<rect x="0.5" y="0.5" width="33" height="23" rx="3.5" stroke="#F2F4F7"/>
<path d="M48.642 18H46.392L50.4886 6.36364H53.0909L57.1932 18H54.9432L51.8352 8.75H51.7443L48.642 18ZM48.7159 13.4375H54.8523V15.1307H48.7159V13.4375ZM58.6349 21.2727V9.27273H60.6577V10.7159H60.777C60.883 10.5038 61.0327 10.2784 61.2259 10.0398C61.419 9.79735 61.6804 9.59091 62.0099 9.42045C62.3395 9.24621 62.7599 9.15909 63.2713 9.15909C63.9455 9.15909 64.5535 9.33144 65.0952 9.67614C65.6406 10.017 66.0724 10.5227 66.3906 11.1932C66.7126 11.8598 66.8736 12.678 66.8736 13.6477C66.8736 14.6061 66.7164 15.4205 66.402 16.0909C66.0876 16.7614 65.6596 17.2727 65.1179 17.625C64.5762 17.9773 63.9626 18.1534 63.277 18.1534C62.777 18.1534 62.3622 18.0701 62.0327 17.9034C61.7031 17.7367 61.438 17.536 61.2372 17.3011C61.0402 17.0625 60.8868 16.8371 60.777 16.625H60.6918V21.2727H58.6349ZM60.652 13.6364C60.652 14.2008 60.7315 14.6951 60.8906 15.1193C61.0535 15.5436 61.2865 15.875 61.5895 16.1136C61.8963 16.3485 62.2675 16.4659 62.7031 16.4659C63.1577 16.4659 63.5384 16.3447 63.8452 16.1023C64.152 15.8561 64.383 15.5208 64.5384 15.0966C64.6974 14.6686 64.777 14.1818 64.777 13.6364C64.777 13.0947 64.6993 12.6136 64.544 12.1932C64.3887 11.7727 64.1577 11.4432 63.8509 11.2045C63.544 10.9659 63.1615 10.8466 62.7031 10.8466C62.2637 10.8466 61.8906 10.9621 61.5838 11.1932C61.277 11.4242 61.044 11.7481 60.8849 12.1648C60.7296 12.5814 60.652 13.072 60.652 13.6364ZM68.6349 21.2727V9.27273H70.6577V10.7159H70.777C70.883 10.5038 71.0327 10.2784 71.2259 10.0398C71.419 9.79735 71.6804 9.59091 72.0099 9.42045C72.3395 9.24621 72.7599 9.15909 73.2713 9.15909C73.9455 9.15909 74.5535 9.33144 75.0952 9.67614C75.6406 10.017 76.0724 10.5227 76.3906 11.1932C76.7126 11.8598 76.8736 12.678 76.8736 13.6477C76.8736 14.6061 76.7164 15.4205 76.402 16.0909C76.0876 16.7614 75.6596 17.2727 75.1179 17.625C74.5762 17.9773 73.9626 18.1534 73.277 18.1534C72.777 18.1534 72.3622 18.0701 72.0327 17.9034C71.7031 17.7367 71.438 17.536 71.2372 17.3011C71.0402 17.0625 70.8868 16.8371 70.777 16.625H70.6918V21.2727H68.6349ZM70.652 13.6364C70.652 14.2008 70.7315 14.6951 70.8906 15.1193C71.0535 15.5436 71.2865 15.875 71.5895 16.1136C71.8963 16.3485 72.2675 16.4659 72.7031 16.4659C73.1577 16.4659 73.5384 16.3447 73.8452 16.1023C74.152 15.8561 74.383 15.5208 74.5384 15.0966C74.6974 14.6686 74.777 14.1818 74.777 13.6364C74.777 13.0947 74.6993 12.6136 74.544 12.1932C74.3887 11.7727 74.1577 11.4432 73.8509 11.2045C73.544 10.9659 73.1615 10.8466 72.7031 10.8466C72.2637 10.8466 71.8906 10.9621 71.5838 11.1932C71.277 11.4242 71.044 11.7481 70.8849 12.1648C70.7296 12.5814 70.652 13.072 70.652 13.6364ZM80.6918 6.36364V18H78.6349V6.36364H80.6918ZM84.0852 21.2727C83.8049 21.2727 83.5455 21.25 83.3068 21.2045C83.072 21.1629 82.8845 21.1136 82.7443 21.0568L83.2216 19.4545C83.5208 19.5417 83.7879 19.5833 84.0227 19.5795C84.2576 19.5758 84.464 19.5019 84.642 19.358C84.8239 19.2178 84.9773 18.983 85.1023 18.6534L85.2784 18.1818L82.1136 9.27273H84.2955L86.3068 15.8636H86.3977L88.4148 9.27273H90.6023L87.108 19.0568C86.9451 19.5189 86.7292 19.9148 86.4602 20.2443C86.1913 20.5777 85.8617 20.8314 85.4716 21.0057C85.0852 21.1837 84.6231 21.2727 84.0852 21.2727ZM97.642 6.36364L100.67 15.5227H100.79L103.812 6.36364H106.131L102.028 18H99.4261L95.3295 6.36364H97.642ZM107.572 18V9.27273H109.629V18H107.572ZM108.607 8.03409C108.281 8.03409 108 7.92614 107.766 7.71023C107.531 7.49053 107.413 7.22727 107.413 6.92045C107.413 6.60985 107.531 6.34659 107.766 6.13068C108 5.91098 108.281 5.80114 108.607 5.80114C108.936 5.80114 109.216 5.91098 109.447 6.13068C109.682 6.34659 109.8 6.60985 109.8 6.92045C109.8 7.22727 109.682 7.49053 109.447 7.71023C109.216 7.92614 108.936 8.03409 108.607 8.03409ZM118.642 11.5795L116.767 11.7841C116.714 11.5947 116.621 11.4167 116.489 11.25C116.36 11.0833 116.186 10.9489 115.966 10.8466C115.746 10.7443 115.477 10.6932 115.159 10.6932C114.731 10.6932 114.371 10.786 114.08 10.9716C113.792 11.1572 113.65 11.3977 113.653 11.6932C113.65 11.947 113.742 12.1534 113.932 12.3125C114.125 12.4716 114.443 12.6023 114.886 12.7045L116.375 13.0227C117.201 13.2008 117.814 13.483 118.216 13.8693C118.621 14.2557 118.826 14.7614 118.83 15.3864C118.826 15.9356 118.665 16.4205 118.347 16.8409C118.032 17.2576 117.595 17.5833 117.034 17.8182C116.473 18.053 115.83 18.1705 115.102 18.1705C114.034 18.1705 113.174 17.947 112.523 17.5C111.871 17.0492 111.483 16.4223 111.358 15.6193L113.364 15.4261C113.455 15.8201 113.648 16.1174 113.943 16.3182C114.239 16.5189 114.623 16.6193 115.097 16.6193C115.585 16.6193 115.977 16.5189 116.273 16.3182C116.572 16.1174 116.722 15.8693 116.722 15.5739C116.722 15.3239 116.625 15.1174 116.432 14.9545C116.242 14.7917 115.947 14.6667 115.545 14.5795L114.057 14.267C113.22 14.0928 112.6 13.7992 112.199 13.3864C111.797 12.9697 111.598 12.4432 111.602 11.8068C111.598 11.2689 111.744 10.803 112.04 10.4091C112.339 10.0114 112.754 9.70455 113.284 9.48864C113.818 9.26894 114.434 9.15909 115.131 9.15909C116.153 9.15909 116.958 9.37689 117.545 9.8125C118.136 10.2481 118.502 10.8371 118.642 11.5795ZM123.037 18.1761C122.484 18.1761 121.986 18.0777 121.543 17.8807C121.103 17.6799 120.755 17.3845 120.497 16.9943C120.243 16.6042 120.116 16.1231 120.116 15.5511C120.116 15.0587 120.207 14.6515 120.389 14.3295C120.571 14.0076 120.819 13.75 121.134 13.5568C121.448 13.3636 121.802 13.2178 122.196 13.1193C122.594 13.017 123.005 12.9432 123.429 12.8977C123.94 12.8447 124.355 12.7973 124.673 12.7557C124.991 12.7102 125.223 12.642 125.366 12.5511C125.514 12.4564 125.588 12.3106 125.588 12.1136V12.0795C125.588 11.6515 125.461 11.3201 125.207 11.0852C124.954 10.8504 124.588 10.733 124.111 10.733C123.607 10.733 123.207 10.8428 122.912 11.0625C122.62 11.2822 122.423 11.5417 122.321 11.8409L120.401 11.5682C120.552 11.0379 120.802 10.5947 121.151 10.2386C121.499 9.87879 121.925 9.60985 122.429 9.43182C122.933 9.25 123.49 9.15909 124.099 9.15909C124.52 9.15909 124.938 9.20833 125.355 9.30682C125.772 9.4053 126.152 9.56818 126.497 9.79545C126.842 10.0189 127.118 10.3239 127.327 10.7102C127.539 11.0966 127.645 11.5795 127.645 12.1591V18H125.668V16.8011H125.599C125.474 17.0436 125.298 17.2708 125.071 17.483C124.848 17.6913 124.565 17.8598 124.224 17.9886C123.887 18.1136 123.491 18.1761 123.037 18.1761ZM123.571 16.6648C123.984 16.6648 124.342 16.5833 124.645 16.4205C124.948 16.2538 125.181 16.0341 125.344 15.7614C125.51 15.4886 125.594 15.1913 125.594 14.8693V13.8409C125.529 13.8939 125.42 13.9432 125.264 13.9886C125.113 14.0341 124.942 14.0739 124.753 14.108C124.563 14.142 124.376 14.1723 124.19 14.1989C124.005 14.2254 123.844 14.2481 123.707 14.267C123.401 14.3087 123.126 14.3769 122.884 14.4716C122.641 14.5663 122.45 14.6989 122.31 14.8693C122.17 15.036 122.099 15.2519 122.099 15.517C122.099 15.8958 122.238 16.1818 122.514 16.375C122.791 16.5682 123.143 16.6648 123.571 16.6648Z" fill="#344054"/>
</svg>
