<svg width="37" height="35" viewBox="0 0 37 35" fill="none" xmlns="http://www.w3.org/2000/svg">
<mask id="mask0_697_110389" style="mask-type:luminance" maskUnits="userSpaceOnUse" x="0" y="0" width="37" height="35">
<path d="M0 0H36.0939V34.4533H0V0Z" fill="white"/>
</mask>
<g mask="url(#mask0_697_110389)">
<path d="M36.0746 1.28815C36.0746 1.38856 36.064 1.48682 36.0426 1.58082L35.9721 1.68763C35.9721 1.68977 35.9721 1.68977 35.9721 1.6919L35.8226 1.92262L35.5705 2.31355L29.7407 11.3498L14.8383 34.4533L13.4027 32.2145L11.7129 29.5848L23.6609 11.3498H26.861L33.5624 0.959172L33.9982 0.28412C34.2183 0.106812 34.496 0 34.7972 0C35.5043 0 36.0746 0.576785 36.0746 1.28815ZM25.1585 4.58865L25.4191 4.18703C25.4768 4.0439 25.5067 3.88582 25.5067 3.72133C25.5067 3.05055 24.9876 2.50367 24.3467 2.50367C24.0369 2.50367 23.7571 2.62971 23.5499 2.83693H23.5477L23.2636 3.27699C23.2636 3.27699 23.2636 3.27699 23.2636 3.27913L18.0576 11.3498H14.9472L7.32084 22.7317L9.01274 25.3721L10.3799 27.502L20.7984 11.3498L25.1585 4.58865ZM15.1651 6.68857C15.1737 6.67575 15.1801 6.66294 15.1886 6.65012C15.3082 6.46213 15.3787 6.23569 15.3787 5.99216C15.3787 5.33206 14.8682 4.798 14.2401 4.798C13.8876 4.798 13.5715 4.96676 13.3621 5.23165L13.2404 5.42178C13.2404 5.42392 13.2404 5.42392 13.2404 5.42392L9.41649 11.3498H0.0234375L4.70608 18.6537L6.07327 20.7856L12.1573 11.3498L15.1651 6.68857Z" fill="#6941C6"/>
</g>
</svg>
