<svg width="66" height="66" viewBox="0 0 66 66" fill="none" xmlns="http://www.w3.org/2000/svg">
<rect x="5" y="5" width="56" height="56" rx="28" fill="#F4EBFF"/>
<path d="M21.333 27.1667L30.8587 33.8348C31.6301 34.3747 32.0158 34.6447 32.4353 34.7493C32.8059 34.8416 33.1935 34.8416 33.564 34.7493C33.9836 34.6447 34.3692 34.3747 35.1406 33.8348L44.6663 27.1667M26.933 42.3334H39.0663C41.0265 42.3334 42.0066 42.3334 42.7553 41.9519C43.4139 41.6164 43.9493 41.081 44.2849 40.4224C44.6663 39.6737 44.6663 38.6936 44.6663 36.7334V29.2667C44.6663 27.3066 44.6663 26.3265 44.2849 25.5778C43.9493 24.9192 43.4139 24.3838 42.7553 24.0482C42.0066 23.6667 41.0265 23.6667 39.0663 23.6667H26.933C24.9728 23.6667 23.9927 23.6667 23.244 24.0482C22.5855 24.3838 22.05 24.9192 21.7145 25.5778C21.333 26.3265 21.333 27.3066 21.333 29.2667V36.7334C21.333 38.6936 21.333 39.6737 21.7145 40.4224C22.05 41.081 22.5855 41.6164 23.244 41.9519C23.9927 42.3334 24.9728 42.3334 26.933 42.3334Z" stroke="#7F56D9" stroke-width="2" stroke-linecap="round" stroke-linejoin="round"/>
<rect x="5" y="5" width="56" height="56" rx="28" stroke="#F9F5FF" stroke-width="10"/>
</svg>
