<svg width="91" height="34" viewBox="0 0 91 34" fill="none" xmlns="http://www.w3.org/2000/svg">
<mask id="mask0_664_128126" style="mask-type:luminance" maskUnits="userSpaceOnUse" x="0" y="0" width="35" height="34">
<path d="M0 0.0100098H34.5862V33.03H0V0.0100098Z" fill="white"/>
</mask>
<g mask="url(#mask0_664_128126)">
<path d="M34.5681 1.24253C34.5681 1.3408 34.5578 1.43293 34.5374 1.52302L34.4698 1.62743C34.4698 1.62743 34.4698 1.62743 34.4698 1.62948L34.3265 1.85059V1.85264L34.0849 2.22526L28.4976 10.8856L14.2152 33.03L12.8394 30.8843L11.2199 28.362L22.6688 10.8856H25.7357L32.1604 0.929278L32.578 0.280262C32.7869 0.112378 33.053 0.0100098 33.3438 0.0100098C34.0194 0.0100098 34.5681 0.560752 34.5681 1.24253ZM24.106 4.40776L24.3538 4.0208H24.3558C24.409 3.88363 24.4398 3.73213 24.4398 3.57448C24.4398 2.9316 23.9422 2.40953 23.326 2.40953C23.0312 2.40953 22.7609 2.53032 22.5623 2.72687L22.29 3.15067L17.3006 10.8856H14.3176L7.01051 21.7961L8.63202 24.3246L9.94234 26.3658L19.9274 10.8856L24.106 4.40776ZM14.5284 6.41827C14.5346 6.40599 14.5428 6.39371 14.551 6.38142C14.6656 6.20125 14.7311 5.98423 14.7311 5.75083C14.7311 5.11819 14.2439 4.60635 13.6419 4.60635C13.3021 4.60635 13.0011 4.77014 12.8005 5.02402L12.6838 5.20623C12.6838 5.20623 12.6838 5.20623 12.6817 5.20623L9.01897 10.8856H0.0146484L4.50453 17.8856L5.8128 19.9289L11.6457 10.8856L14.5284 6.41827Z" fill="#6941C6"/>
</g>
<path d="M37.1012 28.0787C37.3756 28.0787 37.5967 27.8944 37.6704 27.6385L40.2193 17.8992C40.422 17.1109 40.5858 16.6892 40.7332 16.1384C40.8991 15.514 40.6595 15.2396 40.2193 15.2396H39.0462C38.7698 15.2396 38.5323 15.4218 38.477 15.6798L36.4952 23.8775C36.4768 23.9696 36.4604 24.0065 36.4051 24.0065H36.2945C36.2393 24.0065 36.2208 23.9696 36.2024 23.8775L34.3864 15.6798C34.3311 15.4218 34.112 15.2396 33.8357 15.2396H32.296C31.8558 15.2396 31.6163 15.514 31.7637 16.1384C31.9111 16.6892 32.0749 17.1109 32.2776 17.8992L34.7344 27.6385C34.8082 27.8944 35.0293 28.0787 35.3036 28.0787H37.1012Z" fill="#021622"/>
<path d="M48.8041 28.2629C51.6274 28.2629 52.9479 26.5206 52.9479 24.3013V20.0817C52.9479 18.5236 53.0769 17.1662 53.0769 16.249C53.0769 15.5692 52.8026 15.2396 52.2518 15.2396H51.4452C50.8944 15.2396 50.6201 15.5692 50.6201 16.249C50.6201 17.1662 50.747 18.5236 50.747 20.0817V23.9328C50.747 25.6218 50.0141 26.3364 48.9679 26.3364C47.9421 26.3364 47.2071 25.6218 47.2071 23.9328V20.0817C47.2071 18.5236 47.3361 17.1662 47.3361 16.249C47.3361 15.5692 47.0618 15.2396 46.511 15.2396H45.3358C44.7871 15.2396 44.5107 15.5692 44.5107 16.249C44.5107 17.1662 44.6397 18.5236 44.6397 20.0817V24.2091C44.6397 26.5206 45.9603 28.2629 48.8041 28.2629Z" fill="#021622"/>
<path d="M61.4759 28.263C62.6511 28.263 63.4946 27.6385 63.8242 26.5739C63.8426 26.5371 63.8611 26.5207 63.8979 26.5207H63.9348C63.9716 26.5207 63.99 26.5371 64.0085 26.5739L64.4671 27.7491C64.594 28.0787 64.8336 28.1709 65.1079 28.1709H65.1448C65.6402 28.1709 65.7876 27.8412 65.7876 27.4359C65.7876 27.1062 65.6955 26.4286 65.6955 25.841V21.9346C65.6955 21.605 65.5112 21.3838 65.1632 21.3838H62.2662C61.9898 21.3838 61.8444 21.5681 61.8444 21.8424V22.5754C61.8444 22.8518 61.9898 23.034 62.2662 23.034H63.2202C63.384 23.034 63.4946 23.1446 63.4946 23.3104V24.0434C63.4946 25.6035 62.8333 26.3364 62.0266 26.3364C61.1094 26.3364 60.487 25.8225 60.2659 24.1171C60.1922 23.4926 60.1369 22.5754 60.1369 21.6582C60.1369 20.743 60.1922 19.8258 60.2659 19.2013C60.487 17.4959 61.1094 16.982 61.9529 16.982C62.8149 16.982 63.3287 17.3669 63.5499 19.275C63.5683 19.5494 63.7689 19.7337 64.0453 19.7337H65.1448C65.4212 19.7337 65.6218 19.5494 65.6402 19.275C65.7139 16.8162 64.2644 15.0554 61.8628 15.0554C59.9178 15.0554 58.542 16.0648 57.8275 18.0814C57.4426 19.1645 57.2583 20.4113 57.2583 21.6582C57.2583 22.9071 57.4426 24.1355 57.8275 25.2349C58.542 27.2536 59.9178 28.263 61.4759 28.263Z" fill="#021622"/>
<path d="M72.3352 28.0787C72.886 28.0787 73.1603 27.749 73.1603 27.0693C73.1603 26.1521 73.0313 24.7947 73.0313 23.2366V22.8517C73.0313 22.6859 73.1603 22.5753 73.3077 22.5753H75.5087C75.654 22.5753 75.783 22.6859 75.783 22.8517V23.2366C75.783 24.7947 75.654 26.1521 75.654 27.0693C75.654 27.749 75.9304 28.0787 76.4791 28.0787H77.6543C78.205 28.0787 78.4794 27.749 78.4794 27.0693C78.4794 26.1521 78.3504 24.7947 78.3504 23.2366V20.0817C78.3504 18.5236 78.4794 17.1662 78.4794 16.249C78.4794 15.5692 78.205 15.2396 77.6543 15.2396H76.4791C75.9304 15.2396 75.654 15.5692 75.654 16.249C75.654 17.1662 75.783 18.5236 75.783 20.0817V20.4666C75.783 20.614 75.6725 20.743 75.5087 20.743H73.3077C73.1419 20.743 73.0313 20.614 73.0313 20.4666V20.0817C73.0313 18.5236 73.1603 17.1662 73.1603 16.249C73.1603 15.5692 72.886 15.2396 72.3352 15.2396H71.16C70.6114 15.2396 70.335 15.5692 70.335 16.249C70.335 17.1662 70.4639 18.5236 70.4639 20.0817V23.2366C70.4639 24.7947 70.335 26.1521 70.335 27.0693C70.335 27.749 70.6114 28.0787 71.16 28.0787H72.3352Z" fill="#021622"/>
<path d="M87.2275 28.0787C87.7783 28.0787 88.0526 27.749 88.0526 27.0693C88.0526 26.1521 87.9257 24.7947 87.9257 23.2366V22.4668L90.9149 15.9726C91.1155 15.5324 90.9517 15.2396 90.5299 15.2396H89.3179C89.0436 15.2396 88.7876 15.4055 88.6771 15.6614L86.8426 20.1185C86.7874 20.2659 86.6768 20.2659 86.6215 20.1185L84.8424 15.6614C84.7338 15.4055 84.4943 15.2396 84.22 15.2396H82.7704C82.0559 15.2396 81.9822 15.7904 82.2565 16.3206L85.3562 22.4668V23.2366C85.3562 24.7947 85.2293 26.1521 85.2293 27.0693C85.2293 27.749 85.5037 28.0787 86.0544 28.0787H87.2275Z" fill="#6941C6"/>
</svg>
