<svg width="101" height="33" viewBox="0 0 101 33" fill="none" xmlns="http://www.w3.org/2000/svg">
<path d="M10.0035 8.4646H12.6384V17.9674C12.6384 19.0091 12.3922 19.9253 11.8998 20.716C11.4121 21.5067 10.7256 22.1246 9.84015 22.5697C8.95474 23.0101 7.92017 23.2302 6.73646 23.2302C5.54801 23.2302 4.51108 23.0101 3.62567 22.5697C2.74025 22.1246 2.0537 21.5067 1.56601 20.716C1.07832 19.9253 0.834473 19.0091 0.834473 17.9674V8.4646H3.46942V17.7473C3.46942 18.3533 3.60199 18.8931 3.86714 19.3666C4.13703 19.8401 4.51582 20.2118 5.00351 20.4816C5.4912 20.7468 6.06885 20.8794 6.73646 20.8794C7.40408 20.8794 7.98173 20.7468 8.46942 20.4816C8.96184 20.2118 9.34063 19.8401 9.60578 19.3666C9.87093 18.8931 10.0035 18.3533 10.0035 17.7473V8.4646Z" fill="#101828"/>
<path d="M17.9598 16.618V23.0101H15.3888V12.101H17.8462V13.9547H17.974C18.225 13.3439 18.6251 12.8585 19.1743 12.4987C19.7283 12.1388 20.4125 11.9589 21.2269 11.9589C21.9797 11.9589 22.6355 12.1199 23.1942 12.4419C23.7576 12.7638 24.1933 13.2302 24.501 13.841C24.8135 14.4518 24.9674 15.1928 24.9627 16.064V23.0101H22.3916V16.4618C22.3916 15.7326 22.2023 15.162 21.8235 14.7501C21.4494 14.3382 20.9309 14.1322 20.2681 14.1322C19.8183 14.1322 19.4182 14.2316 19.0678 14.4305C18.7221 14.6246 18.4499 14.9064 18.251 15.2757C18.0569 15.645 17.9598 16.0924 17.9598 16.618Z" fill="#101828"/>
<path d="M33.0238 12.101V14.0896H26.7524V12.101H33.0238ZM28.3007 9.48733H30.8718V19.7288C30.8718 20.0744 30.9238 20.3396 31.028 20.5243C31.1369 20.7042 31.279 20.8273 31.4541 20.8936C31.6293 20.9599 31.8235 20.993 32.0365 20.993C32.1975 20.993 32.3443 20.9812 32.4769 20.9575C32.6142 20.9338 32.7184 20.9125 32.7894 20.8936L33.2226 22.9035C33.0853 22.9509 32.8888 23.003 32.6331 23.0598C32.3822 23.1166 32.0744 23.1497 31.7098 23.1592C31.0659 23.1781 30.4859 23.0811 29.9698 22.868C29.4537 22.6502 29.0441 22.314 28.7411 21.8595C28.4428 21.4049 28.296 20.8368 28.3007 20.1549V9.48733Z" fill="#101828"/>
<path d="M35.174 23.0101V12.101H37.745V23.0101H35.174ZM36.4666 10.5527C36.0594 10.5527 35.709 10.4177 35.4154 10.1478C35.1219 9.87322 34.9751 9.54414 34.9751 9.16062C34.9751 8.77236 35.1219 8.44329 35.4154 8.17341C35.709 7.89878 36.0594 7.76147 36.4666 7.76147C36.8785 7.76147 37.2289 7.89878 37.5177 8.17341C37.8113 8.44329 37.9581 8.77236 37.9581 9.16062C37.9581 9.54414 37.8113 9.87322 37.5177 10.1478C37.2289 10.4177 36.8785 10.5527 36.4666 10.5527Z" fill="#101828"/>
<path d="M45.8363 12.101V14.0896H39.5649V12.101H45.8363ZM41.1132 9.48733H43.6843V19.7288C43.6843 20.0744 43.7363 20.3396 43.8405 20.5243C43.9494 20.7042 44.0915 20.8273 44.2666 20.8936C44.4418 20.9599 44.636 20.993 44.849 20.993C45.01 20.993 45.1568 20.9812 45.2894 20.9575C45.4267 20.9338 45.5309 20.9125 45.6019 20.8936L46.0351 22.9035C45.8978 22.9509 45.7013 23.003 45.4456 23.0598C45.1947 23.1166 44.8869 23.1497 44.5223 23.1592C43.8784 23.1781 43.2984 23.0811 42.7823 22.868C42.2662 22.6502 41.8566 22.314 41.5536 21.8595C41.2553 21.4049 41.1085 20.8368 41.1132 20.1549V9.48733Z" fill="#101828"/>
<path d="M50.7919 8.4646V23.0101H48.2208V8.4646H50.7919Z" fill="#101828"/>
<path d="M58.2652 23.2231C57.1715 23.2231 56.2269 22.9959 55.4314 22.5413C54.6407 22.082 54.0323 21.4334 53.6061 20.5953C53.18 19.7525 52.9669 18.7605 52.9669 17.6194C52.9669 16.4973 53.18 15.5124 53.6061 14.6649C54.037 13.8126 54.6383 13.1497 55.4101 12.6762C56.1819 12.198 57.0886 11.9589 58.1303 11.9589C58.8026 11.9589 59.4371 12.0678 60.0337 12.2856C60.635 12.4987 61.1653 12.8301 61.6246 13.2799C62.0886 13.7298 62.4532 14.3027 62.7184 14.9987C62.9835 15.69 63.1161 16.5138 63.1161 17.4703V18.2586H54.1743V16.5257H60.6516C60.6469 16.0333 60.5403 15.5953 60.332 15.2118C60.1237 14.8235 59.8325 14.5181 59.4584 14.2956C59.0891 14.073 58.6582 13.9618 58.1658 13.9618C57.6402 13.9618 57.1786 14.0896 56.7809 14.3453C56.3831 14.5962 56.073 14.9277 55.8505 15.3396C55.6326 15.7468 55.5214 16.1942 55.5166 16.6819V18.1947C55.5166 18.8292 55.6327 19.3737 55.8647 19.8282C56.0967 20.278 56.421 20.6237 56.8377 20.8652C57.2543 21.1019 57.742 21.2203 58.3007 21.2203C58.6748 21.2203 59.0133 21.1682 59.3164 21.064C59.6194 20.9551 59.8822 20.7965 60.1047 20.5882C60.3273 20.3798 60.4953 20.1218 60.609 19.814L63.0095 20.0839C62.858 20.7184 62.5692 21.2724 62.1431 21.7459C61.7217 22.2146 61.1819 22.5792 60.5238 22.8396C59.8656 23.0953 59.1128 23.2231 58.2652 23.2231Z" fill="#101828"/>
<path d="M69.3394 23.2018C68.4824 23.2018 67.7154 22.9816 67.0383 22.5413C66.3612 22.101 65.8262 21.4618 65.4332 20.6237C65.0402 19.7856 64.8437 18.7676 64.8437 17.5697C64.8437 16.3576 65.0426 15.3349 65.4403 14.5015C65.8428 13.6635 66.3849 13.0314 67.0667 12.6052C67.7485 12.1744 68.5085 11.9589 69.3465 11.9589C69.9857 11.9589 70.5113 12.0678 70.9232 12.2856C71.3352 12.4987 71.6619 12.7567 71.9034 13.0598C72.1448 13.3581 72.3319 13.6398 72.4644 13.9049H72.571V8.4646H75.1491V23.0101H72.6207V21.2913H72.4644C72.3319 21.5565 72.1401 21.8382 71.8892 22.1365C71.6382 22.43 71.3068 22.681 70.8948 22.8893C70.4829 23.0976 69.9644 23.2018 69.3394 23.2018ZM70.0568 21.0924C70.6013 21.0924 71.0653 20.9457 71.4488 20.6521C71.8323 20.3538 72.1235 19.9395 72.3224 19.4092C72.5213 18.8789 72.6207 18.261 72.6207 17.5555C72.6207 16.85 72.5213 16.2369 72.3224 15.716C72.1283 15.1952 71.8394 14.7904 71.4559 14.5015C71.0771 14.2127 70.6107 14.0683 70.0568 14.0683C69.4839 14.0683 69.0056 14.2174 68.6221 14.5157C68.2386 14.814 67.9498 15.226 67.7556 15.7515C67.5615 16.2771 67.4644 16.8784 67.4644 17.5555C67.4644 18.2373 67.5615 18.8458 67.7556 19.3808C67.9545 19.9111 68.2457 20.3301 68.6292 20.6379C69.0175 20.9409 69.4933 21.0924 70.0568 21.0924Z" fill="#101828"/>
<path d="M92.1324 8.4646H94.7674V17.9674C94.7674 19.0091 94.5211 19.9253 94.0287 20.716C93.541 21.5067 92.8545 22.1246 91.9691 22.5697C91.0836 23.0101 90.0491 23.2302 88.8654 23.2302C87.6769 23.2302 86.64 23.0101 85.7546 22.5697C84.8692 22.1246 84.1826 21.5067 83.6949 20.716C83.2072 19.9253 82.9634 19.0091 82.9634 17.9674V8.4646H85.5983V17.7473C85.5983 18.3533 85.7309 18.8931 85.996 19.3666C86.2659 19.8401 86.6447 20.2118 87.1324 20.4816C87.6201 20.7468 88.1978 20.8794 88.8654 20.8794C89.533 20.8794 90.1106 20.7468 90.5983 20.4816C91.0907 20.2118 91.4695 19.8401 91.7347 19.3666C91.9998 18.8931 92.1324 18.3533 92.1324 17.7473V8.4646Z" fill="#101828"/>
<path d="M100.266 8.4646V23.0101H97.6313V8.4646H100.266Z" fill="#101828"/>
</svg>
