<svg width="17" height="17" viewBox="0 0 17 17" fill="none" xmlns="http://www.w3.org/2000/svg">
<path d="M1.83301 5.65674L7.27629 9.46703C7.71707 9.77558 7.93746 9.92985 8.17718 9.98961C8.38894 10.0424 8.61041 10.0424 8.82217 9.98961C9.06189 9.92985 9.28228 9.77558 9.72306 9.46703L15.1663 5.65674M5.03301 14.3234H11.9663C13.0864 14.3234 13.6465 14.3234 14.0743 14.1054C14.4506 13.9137 14.7566 13.6077 14.9484 13.2314C15.1663 12.8036 15.1663 12.2435 15.1663 11.1234V6.85674C15.1663 5.73663 15.1663 5.17658 14.9484 4.74876C14.7566 4.37243 14.4506 4.06647 14.0743 3.87473C13.6465 3.65674 13.0864 3.65674 11.9663 3.65674H5.03301C3.9129 3.65674 3.35285 3.65674 2.92503 3.87473C2.5487 4.06647 2.24274 4.37243 2.05099 4.74876C1.83301 5.17658 1.83301 5.73663 1.83301 6.85674V11.1234C1.83301 12.2435 1.83301 12.8036 2.05099 13.2314C2.24274 13.6077 2.5487 13.9137 2.92503 14.1054C3.35285 14.3234 3.9129 14.3234 5.03301 14.3234Z" stroke="#667085" stroke-width="1.33333" stroke-linecap="round" stroke-linejoin="round"/>
</svg>
