<svg width="25" height="24" viewBox="0 0 25 24" fill="none" xmlns="http://www.w3.org/2000/svg">
<g clip-path="url(#clip0_664_144494)">
<path d="M8.29752 21.7508C17.3542 21.7508 22.3078 14.2474 22.3078 7.74052C22.3078 7.5274 22.3078 7.31524 22.2934 7.10404C23.257 6.407 24.0889 5.54392 24.75 4.55524C23.8514 4.95364 22.898 5.2148 21.9218 5.32996C22.9498 4.71465 23.7192 3.74674 24.0866 2.60644C23.1201 3.18005 22.0626 3.58427 20.9599 3.80164C20.2175 3.01222 19.2356 2.48948 18.1662 2.31432C17.0968 2.13917 15.9994 2.32135 15.044 2.83269C14.0885 3.34403 13.3282 4.15601 12.8807 5.14299C12.4333 6.12996 12.3235 7.2369 12.5686 8.29252C10.6109 8.19432 8.69576 7.68555 6.94745 6.79924C5.19915 5.91294 3.65676 4.6689 2.4204 3.14788C1.79073 4.23188 1.59787 5.51511 1.8811 6.7363C2.16433 7.9575 2.90234 9.02483 3.94488 9.721C3.16123 9.69804 2.39465 9.48663 1.71 9.10468V9.16708C1.71031 10.3039 2.10385 11.4057 2.82387 12.2854C3.54389 13.1652 4.54606 13.7689 5.6604 13.994C4.93548 14.1917 4.17487 14.2206 3.43704 14.0784C3.75181 15.0568 4.36443 15.9123 5.18924 16.5254C6.01405 17.1385 7.00983 17.4785 8.03736 17.498C7.01644 18.3004 5.84731 18.8938 4.59687 19.244C3.34643 19.5942 2.03921 19.6944 0.75 19.5389C3.00183 20.9839 5.62192 21.7504 8.29752 21.7469" fill="#1DA1F2"/>
</g>
<defs>
<clipPath id="clip0_664_144494">
<rect width="24" height="24" fill="white" transform="translate(0.75)"/>
</clipPath>
</defs>
</svg>
