<svg width="25" height="24" viewBox="0 0 25 24" fill="none" xmlns="http://www.w3.org/2000/svg">
<path d="M21.0928 17.1449C20.7601 17.9135 20.3663 18.6211 19.91 19.2715C19.2881 20.1583 18.7788 20.7721 18.3864 21.113C17.778 21.6724 17.1262 21.959 16.4282 21.9753C15.9271 21.9753 15.3228 21.8327 14.6193 21.5434C13.9136 21.2555 13.265 21.113 12.672 21.113C12.05 21.113 11.383 21.2555 10.6695 21.5434C9.95493 21.8327 9.37928 21.9834 8.93916 21.9984C8.26981 22.0269 7.60264 21.7322 6.93668 21.113C6.51164 20.7422 5.97999 20.1067 5.34309 19.2063C4.65976 18.2449 4.09796 17.13 3.65784 15.8589C3.18648 14.486 2.9502 13.1565 2.9502 11.8694C2.9502 10.3951 3.26878 9.12345 3.90689 8.05784C4.4084 7.20191 5.07557 6.52672 5.91059 6.03105C6.74562 5.53539 7.64786 5.2828 8.61949 5.26664C9.15114 5.26664 9.84833 5.43109 10.7147 5.75429C11.5787 6.07858 12.1334 6.24303 12.3766 6.24303C12.5585 6.24303 13.1747 6.05074 14.2194 5.66738C15.2073 5.31186 16.0411 5.16466 16.7242 5.22264C18.5751 5.37202 19.9657 6.10167 20.8905 7.41619C19.2351 8.4192 18.4162 9.82403 18.4325 11.6262C18.4475 13.03 18.9567 14.1981 19.9575 15.1256C20.4111 15.5561 20.9176 15.8888 21.4812 16.1251C21.359 16.4795 21.23 16.819 21.0928 17.1449V17.1449ZM16.8478 0.440369C16.8478 1.54062 16.4458 2.56792 15.6446 3.51878C14.6777 4.64917 13.5082 5.30236 12.24 5.19929C12.2238 5.06729 12.2145 4.92837 12.2145 4.78239C12.2145 3.72615 12.6743 2.59576 13.4908 1.67152C13.8985 1.20356 14.417 0.814453 15.0457 0.504058C15.6731 0.198295 16.2666 0.0292007 16.8247 0.000244141C16.841 0.147331 16.8478 0.294426 16.8478 0.440355V0.440369Z" fill="black"/>
</svg>
