<svg width="21" height="21" viewBox="0 0 21 21" fill="none" xmlns="http://www.w3.org/2000/svg">
<g clip-path="url(#clip0_664_128156)">
<path d="M10.2883 1.61997C10.4591 1.20933 11.0409 1.20933 11.2117 1.61997L13.2778 6.58745C13.3498 6.76057 13.5126 6.87886 13.6995 6.89384L19.0623 7.32377C19.5056 7.35931 19.6854 7.91257 19.3476 8.2019L15.2617 11.7019C15.1193 11.8239 15.0571 12.0153 15.1006 12.1976L16.3489 17.4308C16.4521 17.8635 15.9815 18.2054 15.6019 17.9736L11.0106 15.1692C10.8506 15.0715 10.6494 15.0715 10.4894 15.1692L5.89806 17.9736C5.51851 18.2054 5.04788 17.8635 5.15108 17.4308L6.39939 12.1976C6.44289 12.0153 6.3807 11.8239 6.23831 11.7019L2.15241 8.2019C1.81464 7.91257 1.99441 7.35931 2.43773 7.32377L7.80054 6.89384C7.98744 6.87886 8.15024 6.76057 8.22225 6.58745L10.2883 1.61997Z" fill="#F2F4F7"/>
<g clip-path="url(#clip1_664_128156)">
<path d="M10.2883 1.61997C10.4591 1.20933 11.0409 1.20933 11.2117 1.61997L13.2778 6.58745C13.3498 6.76057 13.5126 6.87886 13.6995 6.89384L19.0623 7.32377C19.5056 7.35931 19.6854 7.91257 19.3476 8.2019L15.2617 11.7019C15.1193 11.8239 15.0571 12.0153 15.1006 12.1976L16.3489 17.4308C16.4521 17.8635 15.9815 18.2054 15.6019 17.9736L11.0106 15.1692C10.8506 15.0715 10.6494 15.0715 10.4894 15.1692L5.89806 17.9736C5.51851 18.2054 5.04788 17.8635 5.15108 17.4308L6.39939 12.1976C6.44289 12.0153 6.3807 11.8239 6.23831 11.7019L2.15241 8.2019C1.81464 7.91257 1.99441 7.35931 2.43773 7.32377L7.80054 6.89384C7.98744 6.87886 8.15024 6.76057 8.22225 6.58745L10.2883 1.61997Z" fill="#FEC84B"/>
</g>
</g>
<defs>
<clipPath id="clip0_664_128156">
<rect width="20" height="20" fill="white" transform="translate(0.75 0.0100098)"/>
</clipPath>
<clipPath id="clip1_664_128156">
<rect width="20" height="20" fill="white" transform="translate(0.75 0.0100098)"/>
</clipPath>
</defs>
</svg>
