<svg width="12" height="14" viewBox="0 0 12 14" fill="none" xmlns="http://www.w3.org/2000/svg">
<path d="M9.78471 7.8372H11.639V12.8702C10.5452 13.3017 9.22502 13.5196 7.68265 13.5196C5.80276 13.5196 4.18776 13.0219 2.83766 12.0242C2.17542 11.5286 1.64564 10.8771 1.24829 10.0674C0.855226 9.25352 0.658691 8.3563 0.658691 7.37577C0.658691 6.39096 0.808229 5.50869 1.11157 4.72683C1.41919 3.94069 1.81653 3.287 2.30787 2.76149C2.80348 2.23811 3.37599 1.79163 4.02541 1.41993C5.23879 0.732057 6.57181 0.385986 8.02445 0.385986C8.58842 0.385986 9.19511 0.45221 9.84453 0.582521C10.4939 0.708559 10.9917 0.843142 11.3399 0.984134L11.1434 2.26588C9.42155 1.53742 7.99241 1.17212 6.85379 1.17212C5.56564 1.50324 4.54879 2.18684 3.80324 3.22291C3.05555 4.25472 2.68385 5.51724 2.68385 7.00833C2.68385 8.87114 3.17305 10.311 4.15358 11.3235C5.13839 12.3383 6.43509 12.8445 8.04154 12.8445C8.67814 12.8445 9.2592 12.7826 9.78471 12.6566V7.8372Z" fill="#021622"/>
</svg>
