<svg width="11" height="14" viewBox="0 0 11 14" fill="none" xmlns="http://www.w3.org/2000/svg">
<path d="M10.2593 0.616699V8.39262C10.2593 9.57823 10.1312 10.469 9.8748 11.0672C9.75945 11.3364 9.57786 11.6397 9.32792 11.9815C9.07585 12.319 8.78532 12.5882 8.45634 12.7933C7.61252 13.2782 6.56149 13.5196 5.30325 13.5196C2.1352 13.5196 0.552246 11.8939 0.552246 8.64042V0.616699H2.5005V8.79423C2.5005 9.16594 2.50477 9.46501 2.51759 9.69145C2.53468 9.92003 2.60304 10.2447 2.72267 10.6656C2.84657 11.0886 3.0132 11.4261 3.21828 11.6824C3.42763 11.9388 3.75874 12.1695 4.20949 12.3746C4.66451 12.5754 5.20498 12.6736 5.83303 12.6736C8.21922 12.6736 9.41337 11.3983 9.41337 8.8455V0.616699H10.2593Z" fill="#021622"/>
</svg>
